<?xml version="1.0" standalone="no"?>
<!DOCTYPE svg PUBLIC "-//W3C//DTD SVG 20010904//EN">
<svg xmlns="http://www.w3.org/2000/svg"
 width="800.000000pt" height="333.000000pt" viewBox="0 0 800.000000 333.000000"
 preserveAspectRatio="xMidYMid meet">

<g transform="translate(0.000000,333.000000) scale(0.100000,-0.100000)" stroke="none">
<path d="M1753 3048 c-5 -7 -121 -296 -258 -643 -136 -346 -256 -645 -267
-663 -27 -44 -92 -80 -161 -88 l-57 -7 0 -39 0 -38 233 2 232 3 3 38 c3 34 1
37 -22 37 -64 0 -126 46 -126 94 0 17 23 93 52 169 l53 137 299 -2 299 -3 63
-160 c35 -88 63 -167 64 -176 0 -31 -37 -51 -105 -57 l-66 -5 3 -36 3 -36 293
-3 292 -2 0 39 0 38 -81 5 c-68 4 -84 8 -103 29 -15 15 -125 280 -286 689
-145 366 -267 671 -273 678 -5 6 -24 12 -42 12 -18 0 -37 -6 -42 -12z m-16
-916 c-143 -1 -261 -1 -263 1 -2 2 55 151 126 332 72 180 130 331 131 334 0 3
60 -145 133 -329 l133 -335 -260 -3z"/>
<path d="M270 2963 l0 -43 98 0 c53 0 114 -5 134 -10 73 -21 68 41 68 -916 0
-806 -1 -863 -17 -883 -24 -29 -78 -40 -190 -41 l-93 0 0 -50 0 -50 775 0 775
0 4 23 c6 27 76 696 76 726 0 17 -6 21 -35 21 -19 0 -35 -2 -35 -5 0 -2 -7
-53 -15 -113 -38 -268 -120 -414 -278 -491 -101 -50 -174 -61 -425 -61 l-223
0 -24 25 -25 24 0 861 c0 572 3 868 10 881 23 41 67 53 223 57 l147 4 0 42 0
41 -475 0 -475 0 0 -42z"/>
<path d="M5680 2964 l0 -44 83 0 c106 0 173 -20 214 -62 54 -57 584 -868 576
-882 -5 -7 -120 -177 -256 -379 -270 -398 -314 -449 -414 -487 -69 -26 -140
-40 -199 -40 l-44 0 0 -50 0 -50 65 0 c45 0 65 -4 65 -12 0 -7 -11 -59 -25
-116 -64 -262 -171 -381 -385 -429 -60 -13 -136 -16 -385 -17 -170 -1 -323 3
-338 7 -16 4 -32 18 -37 33 -6 15 -10 202 -10 451 l0 425 208 -4 c169 -3 214
-7 247 -21 89 -39 123 -102 132 -237 l6 -90 38 0 39 0 0 395 0 395 -39 0 -38
0 -6 -90 c-9 -143 -52 -210 -152 -240 -22 -7 -129 -14 -237 -17 l-198 -6 0
396 c0 374 1 396 19 418 l19 24 329 0 c349 0 397 -5 500 -50 132 -59 215 -218
239 -456 l7 -69 39 0 c40 0 40 0 35 33 -4 17 -23 168 -43 335 l-38 302 -693 0
-693 0 0 23 c0 12 -11 150 -25 307 -14 157 -25 295 -25 308 l0 22 -914 0 -915
0 -5 -52 c-10 -85 -46 -552 -46 -586 0 -30 3 -32 33 -32 l34 0 12 113 c28 262
74 368 183 421 75 36 171 48 368 44 156 -3 173 -5 186 -22 12 -17 14 -153 14
-874 0 -592 -3 -859 -11 -874 -21 -40 -73 -51 -251 -56 l-168 -4 0 -44 0 -44
565 -2 565 -3 0 46 0 47 -167 4 c-179 5 -231 16 -252 56 -8 15 -11 283 -11
876 0 843 0 856 20 876 19 19 33 20 197 20 259 0 353 -25 427 -111 50 -59 86
-177 101 -334 3 -33 8 -75 11 -92 l5 -33 -111 0 -110 0 0 -44 0 -43 114 -6
c116 -5 167 -20 180 -52 3 -9 6 -401 6 -870 l0 -854 -23 -26 c-18 -21 -35 -28
-92 -35 -39 -5 -96 -9 -127 -10 l-58 0 0 -45 0 -45 860 0 c473 0 860 2 860 4
0 9 100 622 105 644 l5 22 250 0 250 0 0 50 c0 48 -1 50 -28 50 -38 0 -111 39
-135 71 -42 58 -36 72 199 420 119 178 220 328 225 333 7 8 444 -636 483 -712
17 -33 17 -33 -13 -61 -30 -28 -96 -51 -145 -51 -24 0 -26 -3 -26 -45 l0 -45
416 0 415 0 -3 43 -3 42 -105 6 c-109 6 -164 24 -202 65 -15 18 -277 410 -537
806 l-123 187 214 313 c117 172 232 331 255 354 72 74 203 123 326 124 l47 0
0 45 0 45 -355 0 -355 0 0 -45 c0 -42 2 -45 27 -45 41 0 113 -39 134 -74 37
-61 32 -74 -160 -357 -98 -145 -182 -263 -187 -263 -4 1 -98 135 -207 298
-222 329 -221 328 -146 366 22 12 63 24 90 27 l49 6 0 41 0 41 -410 1 -410 1
0 -43z"/>
</g>
</svg>
