<?xml version="1.0" standalone="no"?>
<!DOCTYPE svg PUBLIC "-//W3C//DTD SVG 20010904//EN">
<svg xmlns="http://www.w3.org/2000/svg"
 width="512.000000pt" height="512.000000pt" viewBox="0 0 512.000000 512.000000"
 preserveAspectRatio="xMidYMid meet">

<g transform="translate(0.000000,512.000000) scale(0.100000,-0.100000)"
 stroke="none">
<path d="M1203 4543 c-24 -2 -43 -5 -43 -7 0 -2 24 -39 54 -84 40 -60 58 -98
70 -151 31 -134 12 -392 -32 -448 -9 -11 -43 -52 -75 -90 -361 -423 -504
-1000 -385 -1553 11 -52 55 -201 99 -330 123 -370 147 -482 156 -722 3 -87 8
-158 10 -158 3 0 83 72 178 160 l174 160 83 -56 c46 -32 107 -68 136 -82 l53
-24 -39 -34 c-150 -128 -186 -376 -79 -539 62 -95 62 -95 62 -2 0 65 5 91 23
124 35 66 78 110 140 140 47 23 70 28 132 28 89 0 146 -24 208 -86 62 -61 86
-120 86 -211 l1 -77 27 25 c36 35 83 127 98 193 16 68 8 170 -18 239 l-20 53
36 -8 c21 -4 136 -7 258 -7 l221 -1 -19 -55 c-31 -87 -22 -224 19 -310 17 -36
44 -80 59 -98 l29 -34 -3 66 c-5 87 18 152 73 214 61 68 128 96 225 96 90 1
154 -28 214 -94 61 -67 78 -117 74 -212 l-3 -80 37 42 c80 90 120 226 99 343
-13 76 -58 169 -107 222 -20 21 -32 41 -26 43 32 10 192 93 225 116 21 14 42
26 48 26 5 0 67 -53 137 -117 70 -64 138 -127 152 -139 l25 -23 2 147 c3 238
38 399 172 792 98 290 128 473 118 725 -6 155 -20 250 -56 392 -70 271 -226
560 -412 758 -65 69 -83 136 -83 315 1 162 17 224 90 330 26 38 45 72 43 75
-15 14 -181 15 -258 1 -131 -23 -233 -78 -337 -178 -47 -46 -86 -84 -88 -86
-2 -1 -57 16 -122 37 -391 130 -777 130 -1172 -1 l-123 -41 -77 79 c-158 161
-324 219 -569 197z m2422 -707 c114 -36 198 -89 291 -181 66 -66 89 -97 127
-175 62 -126 80 -201 80 -330 1 -280 -155 -526 -408 -646 -107 -51 -184 -68
-310 -68 -155 0 -274 36 -398 118 -61 40 -67 42 -67 21 0 -16 -121 -254 -253
-500 -117 -219 -117 -219 -133 -204 -7 8 -54 93 -105 189 -50 96 -122 229
-159 295 -38 66 -76 143 -86 171 l-17 50 -58 -38 c-406 -272 -967 -51 -1089
428 -42 165 -20 348 61 507 61 117 191 246 309 305 120 59 192 76 330 76 119
0 160 -8 270 -51 158 -63 294 -187 368 -335 58 -114 76 -191 77 -319 l0 -106
40 10 c40 9 145 4 178 -8 15 -7 17 2 17 97 0 294 150 532 415 659 112 54 186
69 325 65 89 -3 133 -10 195 -30z m-2684 -1622 l37 -36 63 21 c34 11 64 20 65
18 2 -1 -30 -38 -71 -82 -40 -44 -75 -78 -78 -75 -9 10 -65 190 -59 190 3 0
23 -16 43 -36z m3267 -76 c-17 -51 -33 -95 -35 -97 -2 -3 -39 31 -83 74 -44
43 -78 80 -76 82 2 2 32 -7 68 -20 l65 -23 43 38 c23 21 44 38 46 38 1 0 -11
-42 -28 -92z m-2844 6 c36 9 68 16 71 16 7 0 -158 -150 -165 -150 -5 0 -51
167 -50 185 0 5 18 -8 39 -29 l40 -39 65 17z m2526 -64 c-12 -49 -27 -90 -32
-90 -10 0 -170 142 -165 146 1 1 32 -6 69 -16 l66 -18 38 39 c21 21 40 37 42
34 2 -2 -6 -45 -18 -95z m-2212 1 c36 10 67 18 68 16 4 -4 -156 -147 -165
-147 -4 0 -15 33 -24 73 -10 39 -20 83 -24 97 -5 23 -1 21 37 -16 l42 -41 66
18z m1902 -52 c-11 -46 -23 -90 -25 -97 -4 -9 -32 11 -85 58 -45 40 -79 75
-76 77 2 2 31 -3 65 -12 l61 -15 36 40 c20 22 39 39 41 36 2 -2 -5 -41 -17
-87z m-2509 -187 c13 -9 28 -8 74 8 32 11 60 18 63 15 3 -2 -28 -38 -68 -80
-41 -41 -77 -72 -81 -68 -3 5 -20 50 -38 102 l-31 95 33 -30 c17 -17 39 -35
48 -42z m3029 -66 l-32 -96 -78 83 c-43 45 -77 83 -76 84 1 1 32 -7 69 -19
l67 -22 37 37 c20 20 39 35 41 32 2 -2 -10 -47 -28 -99z m-2700 -6 c8 0 39 9
69 20 29 12 55 20 56 18 2 -2 -32 -41 -75 -86 l-78 -84 -31 94 c-17 51 -31 97
-31 103 0 5 17 -8 38 -28 21 -20 44 -37 52 -37z m2395 -52 c-15 -46 -30 -87
-33 -92 -4 -8 -162 142 -162 155 0 4 30 -4 66 -17 l66 -24 41 35 c22 19 42 33
45 31 2 -3 -8 -42 -23 -88z m-2561 -221 c33 12 63 20 65 17 6 -5 -140 -154
-150 -154 -4 0 -20 37 -35 83 -15 45 -29 89 -32 97 -3 8 16 -3 43 -24 l48 -40
61 21z m2784 -70 c-18 -53 -35 -97 -38 -97 -3 0 -40 38 -83 85 l-77 84 71 -24
71 -24 41 39 c23 21 43 37 44 36 1 -1 -12 -46 -29 -99z"/>
<path d="M1759 3424 c-63 -22 -137 -80 -177 -138 -120 -179 -56 -425 135 -522
53 -26 67 -29 158 -29 87 0 107 3 155 26 271 128 271 514 0 647 -69 34 -197
41 -271 16z m229 -156 c53 -25 96 -82 112 -148 23 -94 -36 -208 -126 -246 -45
-19 -138 -18 -177 2 -81 41 -127 113 -127 199 0 97 66 186 157 211 56 15 101
10 161 -18z"/>
<path d="M1745 3194 c-45 -46 17 -125 70 -90 32 21 40 52 21 81 -19 29 -66 34
-91 9z"/>
<path d="M3456 3414 c-116 -37 -202 -122 -237 -235 -55 -178 25 -356 196 -436
51 -23 73 -28 145 -28 101 0 170 27 242 94 231 212 90 599 -225 617 -48 3 -88
-1 -121 -12z m183 -150 c134 -67 159 -237 51 -345 -162 -162 -422 -3 -360 221
35 125 185 185 309 124z"/>
<path d="M3397 3192 c-45 -49 8 -118 68 -90 33 15 42 51 21 83 -20 30 -65 34
-89 7z"/>
<path d="M2470 2971 c-90 -29 -175 -105 -212 -189 -12 -26 -23 -76 -25 -112
-6 -89 18 -160 110 -323 41 -73 104 -189 141 -259 37 -70 71 -130 76 -133 9
-5 104 166 251 452 l84 163 -1 82 c-1 99 -22 155 -86 224 -65 70 -125 97 -228
100 -47 2 -96 0 -110 -5z"/>
</g>
</svg>
